<svg width="42" height="42" viewBox="0 0 42 42" fill="none" xmlns="http://www.w3.org/2000/svg">
<circle cx="20.8207" cy="21.3929" r="20.0729" stroke="#555A72" stroke-width="0.854167"/>
<path d="M22.4667 17.7257H18.8V20.659H22.4667C22.8557 20.659 23.2288 20.5045 23.5038 20.2294C23.7789 19.9544 23.9334 19.5813 23.9334 19.1923C23.9334 18.8033 23.7789 18.4303 23.5038 18.1552C23.2288 17.8802 22.8557 17.7257 22.4667 17.7257Z" fill="#FFA404"/>
<path d="M22.4667 22.1257H18.8V25.059H22.4667C22.8557 25.059 23.2288 24.9045 23.5038 24.6294C23.7789 24.3544 23.9334 23.9813 23.9334 23.5923C23.9334 23.2033 23.7789 22.8303 23.5038 22.5552C23.2288 22.2802 22.8557 22.1257 22.4667 22.1257Z" fill="#FFA404"/>
<path d="M21 10.3923C18.8244 10.3923 16.6977 11.0375 14.8887 12.2462C13.0798 13.4549 11.6699 15.1728 10.8373 17.1828C10.0048 19.1928 9.78693 21.4045 10.2114 23.5383C10.6358 25.6721 11.6835 27.6321 13.2218 29.1705C14.7602 30.7089 16.7202 31.7565 18.854 32.181C20.9878 32.6054 23.1995 32.3876 25.2095 31.555C27.2195 30.7224 28.9375 29.3125 30.1462 27.5036C31.3549 25.6947 32 23.5679 32 21.3923C31.9967 18.476 30.8367 15.68 28.7745 13.6178C26.7123 11.5556 23.9164 10.3956 21 10.3923ZM25.4 23.5923C25.3976 24.2408 25.1804 24.8701 24.7823 25.382C24.3843 25.8939 23.8278 26.2594 23.2 26.4215V27.259C23.2 27.4535 23.1227 27.64 22.9852 27.7775C22.8477 27.9151 22.6612 27.9923 22.4667 27.9923C22.2722 27.9923 22.0857 27.9151 21.9481 27.7775C21.8106 27.64 21.7333 27.4535 21.7333 27.259V26.5257H20.2667V27.259C20.2667 27.4535 20.1894 27.64 20.0519 27.7775C19.9144 27.9151 19.7278 27.9923 19.5333 27.9923C19.3388 27.9923 19.1523 27.9151 19.0148 27.7775C18.8773 27.64 18.8 27.4535 18.8 27.259V26.5257H16.6C16.4055 26.5257 16.219 26.4484 16.0815 26.3109C15.9439 26.1733 15.8667 25.9868 15.8667 25.7923C15.8667 25.5978 15.9439 25.4113 16.0815 25.2738C16.219 25.1363 16.4055 25.059 16.6 25.059H17.3333V17.7257H16.6C16.4055 17.7257 16.219 17.6484 16.0815 17.5109C15.9439 17.3734 15.8667 17.1868 15.8667 16.9923C15.8667 16.7978 15.9439 16.6113 16.0815 16.4738C16.219 16.3363 16.4055 16.259 16.6 16.259H18.8V15.5257C18.8 15.3312 18.8773 15.1446 19.0148 15.0071C19.1523 14.8696 19.3388 14.7923 19.5333 14.7923C19.7278 14.7923 19.9144 14.8696 20.0519 15.0071C20.1894 15.1446 20.2667 15.3312 20.2667 15.5257V16.259H21.7333V15.5257C21.7333 15.3312 21.8106 15.1446 21.9481 15.0071C22.0857 14.8696 22.2722 14.7923 22.4667 14.7923C22.6612 14.7923 22.8477 14.8696 22.9852 15.0071C23.1227 15.1446 23.2 15.3312 23.2 15.5257V16.3631C23.7172 16.4932 24.1887 16.7629 24.563 17.1427C24.9373 17.5225 25.2 17.9979 25.3224 18.517C25.4449 19.036 25.4224 19.5787 25.2573 20.0858C25.0923 20.5928 24.791 21.0448 24.3865 21.3923C24.7033 21.665 24.9577 22.0025 25.1326 22.3821C25.3075 22.7617 25.3987 23.1744 25.4 23.5923Z" fill="#FFA404"/>
</svg>
