<svg width="99" height="37" viewBox="0 0 99 37" fill="none" xmlns="http://www.w3.org/2000/svg">
<path d="M1.1604 31.6034L9.44684 25.627C10.3201 24.9971 11.5353 25.1717 12.196 26.0219L15.8647 30.7432C16.6684 31.7774 18.2326 31.7729 19.0303 30.7342L24.4902 23.6241C25.416 22.4185 27.295 22.6455 27.9071 24.0368L32.4927 34.4597C33.2641 36.213 35.8212 35.9836 36.2682 34.121L40.1987 17.742C40.4145 16.8427 41.2187 16.2087 42.1435 16.2087H42.4135C43.3321 16.2087 44.1325 15.583 44.3543 14.6917L47.368 2.58185C47.8696 0.566132 50.7312 0.556568 51.2463 2.56889L54.959 17.073C55.1855 17.9581 55.983 18.5771 56.8965 18.5771H58.0917C58.9422 18.5771 59.6997 19.115 59.98 19.918L62.3059 26.5814C62.9143 28.3245 65.3582 28.3828 66.0489 26.6706L73.0152 9.40304C73.711 7.67839 76.1781 7.75394 76.767 9.51793L81.6418 24.1183C82.2989 26.0866 85.1489 25.8753 85.5086 23.8316L88.0179 9.57256C88.1861 8.61642 89.0168 7.9192 89.9876 7.9192H98.1604" stroke="url(#paint0_linear_313_53)" stroke-width="2"/>
<defs>
<linearGradient id="paint0_linear_313_53" x1="-5.8396" y1="32.3929" x2="98.1604" y2="31.3929" gradientUnits="userSpaceOnUse">
<stop stop-color="#11BC60" stop-opacity="0"/>
<stop offset="0.479167" stop-color="#11BC60"/>
<stop offset="1" stop-color="#11BC60" stop-opacity="0"/>
</linearGradient>
</defs>
</svg>
