<svg width="196" height="36" viewBox="0 0 196 36" fill="none" xmlns="http://www.w3.org/2000/svg">
<path d="M16.9671 26.3101H25.5228C25.3928 26.4257 25.2627 26.5269 25.1326 26.6425L18.9615 31.2672C16.9237 32.7847 13.5997 32.7847 11.5474 31.2672L5.36186 26.6425C4.00334 25.6308 2.8905 23.3907 2.8905 21.6998V10.9906C2.8905 9.22744 4.23458 7.27638 5.88214 6.65493L13.0794 3.95235C14.2645 3.50433 16.23 3.50433 17.4151 3.95235L24.5979 6.65493C25.9709 7.17521 27.1415 8.62045 27.5028 10.0946H16.9526C16.6347 10.0946 16.3456 10.1091 16.071 10.1091C13.3973 10.268 12.7036 11.2363 12.7036 14.2857V22.1333C12.7181 25.4574 13.5708 26.3101 16.9671 26.3101Z" fill="#00BDB0"/>
<path d="M21.6784 25.2261C17.6874 25.2261 14.4523 21.991 14.4523 18C14.4523 14.009 17.6874 10.7738 21.6784 10.7738C25.6694 10.7738 28.9046 14.009 28.9046 18C28.9046 21.991 25.6694 25.2261 21.6784 25.2261ZM21.6784 14.9339L18.6124 18L21.6784 21.066L24.7445 18L21.6784 14.9339Z" fill="#00BDB0"/>
<path d="M48.3426 8.62099C49.5913 8.62099 50.6492 8.78574 51.5163 9.11526C52.3835 9.4361 53.1856 9.90002 53.9226 10.507L52.1147 12.6532C51.6031 12.2196 51.0394 11.8901 50.4237 11.6646C49.8167 11.4392 49.1664 11.3265 48.4727 11.3265C47.6402 11.3265 46.8728 11.5476 46.1704 11.9898C45.4767 12.4321 44.9174 13.1431 44.4925 14.123C44.0763 15.0942 43.8682 16.3775 43.8682 17.9731C43.8682 19.5426 44.0676 20.813 44.4665 21.7842C44.8741 22.7554 45.4247 23.4664 46.1184 23.9173C46.8208 24.3596 47.6142 24.5807 48.4987 24.5807C49.4352 24.5807 50.2113 24.4159 50.827 24.0864C51.4426 23.7569 51.9976 23.397 52.4919 23.0068L54.1698 25.127C53.5368 25.7513 52.7433 26.2846 51.7895 26.7269C50.8443 27.1691 49.6953 27.3902 48.3426 27.3902C46.7731 27.3902 45.3727 27.0303 44.1413 26.3106C42.91 25.5909 41.9431 24.533 41.2407 23.1369C40.5384 21.7408 40.1872 20.0195 40.1872 17.9731C40.1872 15.9613 40.547 14.2617 41.2668 12.8743C41.9951 11.4782 42.975 10.4203 44.2064 9.70058C45.4464 8.98085 46.8251 8.62099 48.3426 8.62099ZM62.4451 12.8353C63.8152 12.8353 64.9772 13.1344 65.931 13.7328C66.8849 14.3311 67.6089 15.1766 68.1032 16.2692C68.6062 17.3531 68.8576 18.6234 68.8576 20.0802C68.8576 21.5717 68.6062 22.8637 68.1032 23.9563C67.6003 25.0489 66.8719 25.8944 65.918 26.4927C64.9642 27.091 63.8022 27.3902 62.4321 27.3902C61.0707 27.3902 59.9088 27.0997 58.9462 26.5187C57.9924 25.9291 57.264 25.0923 56.761 24.0084C56.2581 22.9158 56.0066 21.6151 56.0066 20.1062C56.0066 18.6668 56.2581 17.4008 56.761 16.3082C57.264 15.2156 57.9967 14.3658 58.9592 13.7588C59.9218 13.1431 61.0837 12.8353 62.4451 12.8353ZM62.4451 15.4237C61.4826 15.4237 60.7629 15.8009 60.286 16.5553C59.8177 17.3097 59.5836 18.4934 59.5836 20.1062C59.5836 21.7365 59.8177 22.9288 60.286 23.6832C60.7542 24.4289 61.4696 24.8018 62.4321 24.8018C63.3947 24.8018 64.11 24.4289 64.5783 23.6832C65.0466 22.9288 65.2807 21.7278 65.2807 20.0802C65.2807 18.476 65.0466 17.301 64.5783 16.5553C64.11 15.8009 63.399 15.4237 62.4451 15.4237ZM80.2417 13.2255V24.5677H83.8706V27H72.7756V24.5677H76.8078V15.6578H72.9057V13.2255H80.2417ZM78.0175 6.27971C78.6505 6.27971 79.1621 6.47482 79.5523 6.86503C79.9512 7.25524 80.1506 7.74084 80.1506 8.32182C80.1506 8.90281 79.9512 9.39274 79.5523 9.79162C79.1621 10.1818 78.6505 10.3769 78.0175 10.3769C77.3844 10.3769 76.8685 10.1818 76.4696 9.79162C76.0707 9.39274 75.8713 8.90281 75.8713 8.32182C75.8713 7.74084 76.0707 7.25524 76.4696 6.86503C76.8685 6.47482 77.3844 6.27971 78.0175 6.27971ZM87.9187 27V13.2255H90.9103L91.1575 14.9294C91.7471 14.2357 92.4105 13.7154 93.1475 13.3686C93.8846 13.013 94.678 12.8353 95.5278 12.8353C96.7679 12.8353 97.713 13.1951 98.3634 13.9149C99.0137 14.6259 99.3389 15.6275 99.3389 16.9195V27H95.905V18.2592C95.905 17.5655 95.8617 17.0106 95.775 16.5943C95.6883 16.1694 95.5235 15.8659 95.2807 15.6838C95.0379 15.4931 94.6867 15.3977 94.2271 15.3977C93.8543 15.3977 93.4944 15.4801 93.1475 15.6448C92.8094 15.8096 92.4885 16.0307 92.185 16.3082C91.8902 16.5857 91.6127 16.8935 91.3526 17.2317V27H87.9187ZM109.786 27.3902C108.182 27.3902 106.817 27.0347 105.689 26.3236C104.562 25.6126 103.699 24.559 103.101 23.1629C102.511 21.7668 102.216 20.0369 102.216 17.9731C102.216 16.4382 102.429 15.0898 102.854 13.9279C103.279 12.7572 103.86 11.7817 104.597 11.0013C105.342 10.2122 106.201 9.6182 107.172 9.21931C108.152 8.82043 109.188 8.62099 110.281 8.62099C111.547 8.62099 112.609 8.81176 113.467 9.1933C114.326 9.57484 115.106 10.0951 115.809 10.7541L113.871 12.7442C113.324 12.25 112.782 11.8858 112.245 11.6516C111.707 11.4175 111.1 11.3004 110.424 11.3004C109.799 11.3004 109.214 11.4218 108.668 11.6646C108.13 11.9074 107.653 12.2933 107.237 12.8223C106.83 13.3512 106.509 14.0406 106.275 14.8904C106.04 15.7402 105.923 16.7764 105.923 17.9991C105.923 19.6206 106.066 20.9257 106.353 21.9142C106.647 22.8941 107.085 23.6052 107.666 24.0474C108.256 24.481 108.993 24.6977 109.878 24.6977C110.372 24.6977 110.836 24.6414 111.269 24.5287C111.712 24.4073 112.132 24.2468 112.531 24.0474V19.4559H109.825L109.461 16.8545H115.926V25.6603C115.059 26.1719 114.126 26.5881 113.129 26.909C112.141 27.2298 111.026 27.3902 109.786 27.3902ZM122.042 21.1598C122.111 22.0183 122.306 22.7163 122.627 23.254C122.957 23.7916 123.377 24.1861 123.889 24.4376C124.401 24.6891 124.969 24.8148 125.593 24.8148C126.252 24.8148 126.872 24.7108 127.453 24.5026C128.034 24.2945 128.606 24.004 129.17 23.6312L130.601 25.5952C129.959 26.1329 129.192 26.5664 128.298 26.8959C127.414 27.2255 126.438 27.3902 125.372 27.3902C123.88 27.3902 122.623 27.0824 121.6 26.4667C120.585 25.851 119.818 24.9969 119.297 23.9043C118.777 22.8117 118.517 21.5544 118.517 20.1323C118.517 18.7622 118.773 17.5265 119.284 16.4252C119.796 15.324 120.533 14.4525 121.496 13.8108C122.458 13.1605 123.62 12.8353 124.982 12.8353C126.248 12.8353 127.34 13.1128 128.259 13.6677C129.179 14.2227 129.89 15.0205 130.393 16.061C130.895 17.0929 131.147 18.3373 131.147 19.7941C131.147 20.0282 131.138 20.2667 131.121 20.5095C131.112 20.7523 131.099 20.969 131.082 21.1598H122.042ZM124.995 15.2546C124.162 15.2546 123.477 15.5538 122.939 16.1521C122.411 16.7417 122.098 17.6783 122.003 18.9616H127.804C127.787 17.7997 127.544 16.8935 127.076 16.2431C126.616 15.5841 125.922 15.2546 124.995 15.2546ZM146.602 26.2326C146.091 26.5708 145.471 26.8483 144.742 27.065C144.014 27.2818 143.225 27.3902 142.375 27.3902C140.693 27.3902 139.427 26.9566 138.577 26.0895C137.727 25.2137 137.302 24.0517 137.302 22.6036V15.6578H134.31V13.2255H137.302V10.1948L140.736 9.77862V13.2255H145.288L144.937 15.6578H140.736V22.5906C140.736 23.3017 140.909 23.8219 141.256 24.1514C141.603 24.481 142.162 24.6457 142.934 24.6457C143.428 24.6457 143.879 24.5894 144.287 24.4766C144.703 24.3552 145.08 24.2035 145.419 24.0214L146.602 26.2326ZM162.201 26.2326C161.689 26.5708 161.069 26.8483 160.341 27.065C159.612 27.2818 158.823 27.3902 157.973 27.3902C156.291 27.3902 155.025 26.9566 154.175 26.0895C153.325 25.2137 152.9 24.0517 152.9 22.6036V15.6578H149.909V13.2255H152.9V10.1948L156.334 9.77862V13.2255H160.887L160.536 15.6578H156.334V22.5906C156.334 23.3017 156.508 23.8219 156.855 24.1514C157.201 24.481 157.761 24.6457 158.533 24.6457C159.027 24.6457 159.478 24.5894 159.885 24.4766C160.302 24.3552 160.679 24.2035 161.017 24.0214L162.201 26.2326ZM168.837 21.1598C168.906 22.0183 169.101 22.7163 169.422 23.254C169.752 23.7916 170.172 24.1861 170.684 24.4376C171.196 24.6891 171.764 24.8148 172.388 24.8148C173.047 24.8148 173.667 24.7108 174.248 24.5026C174.829 24.2945 175.401 24.004 175.965 23.6312L177.396 25.5952C176.754 26.1329 175.987 26.5664 175.093 26.8959C174.209 27.2255 173.233 27.3902 172.167 27.3902C170.675 27.3902 169.418 27.0824 168.395 26.4667C167.38 25.851 166.613 24.9969 166.093 23.9043C165.572 22.8117 165.312 21.5544 165.312 20.1323C165.312 18.7622 165.568 17.5265 166.079 16.4252C166.591 15.324 167.328 14.4525 168.291 13.8108C169.253 13.1605 170.415 12.8353 171.777 12.8353C173.043 12.8353 174.135 13.1128 175.054 13.6677C175.974 14.2227 176.685 15.0205 177.188 16.061C177.69 17.0929 177.942 18.3373 177.942 19.7941C177.942 20.0282 177.933 20.2667 177.916 20.5095C177.907 20.7523 177.894 20.969 177.877 21.1598H168.837ZM171.79 15.2546C170.957 15.2546 170.272 15.5538 169.734 16.1521C169.206 16.7417 168.893 17.6783 168.798 18.9616H174.599C174.582 17.7997 174.339 16.8935 173.871 16.2431C173.411 15.5841 172.717 15.2546 171.79 15.2546ZM181.639 27V24.6197H183.577V15.5928H181.639V13.2255H186.191L186.829 16.3862C187.332 15.2156 187.965 14.3354 188.728 13.7458C189.491 13.1475 190.449 12.8483 191.602 12.8483C192.044 12.8483 192.435 12.883 192.773 12.9523C193.12 13.0217 193.449 13.1128 193.761 13.2255L192.734 16.1131C192.465 16.0437 192.209 15.9917 191.966 15.957C191.724 15.9136 191.451 15.8919 191.147 15.8919C190.193 15.8919 189.361 16.2648 188.65 17.0106C187.947 17.7476 187.401 18.7492 187.011 20.0152V24.6197H189.755V27H181.639ZM190.861 18.5974V14.9424L191.329 13.2255H193.761L193.15 18.5974H190.861Z" fill="white"/>
</svg>
