<svg width="32" height="33" viewBox="0 0 32 33" fill="none" xmlns="http://www.w3.org/2000/svg">
<path opacity="0.4" d="M15.9998 3.05928C23.3652 3.05928 29.3332 9.02862 29.3332 16.3926C29.3332 23.7566 23.3652 29.7259 15.9998 29.7259C8.63717 29.7259 2.6665 23.7566 2.6665 16.3926C2.6665 9.02862 8.63717 3.05928 15.9998 3.05928Z" fill="#EADDFF"/>
<path fill-rule="evenodd" clip-rule="evenodd" d="M14.4048 22.3647C14.4048 23.2461 15.1208 23.9621 15.9995 23.9621C16.8795 23.9621 17.5968 23.2461 17.5968 22.3647C17.5968 21.4834 16.8795 20.7674 15.9995 20.7674C15.1208 20.7674 14.4048 21.4834 14.4048 22.3647ZM14.4048 16.3926C14.4048 17.2739 15.1208 17.9899 15.9995 17.9899C16.8795 17.9899 17.5968 17.2739 17.5968 16.3926C17.5968 15.5113 16.8795 14.7953 15.9995 14.7953C15.1208 14.7953 14.4048 15.5113 14.4048 16.3926ZM15.9995 12.0174C15.1208 12.0174 14.4048 11.3014 14.4048 10.4201C14.4048 9.53875 15.1208 8.82275 15.9995 8.82275C16.8795 8.82275 17.5968 9.53875 17.5968 10.4201C17.5968 11.3014 16.8795 12.0174 15.9995 12.0174Z" fill="#EADDFF"/>
</svg>
