<svg width="20" height="20" viewBox="0 0 20 20" fill="none" xmlns="http://www.w3.org/2000/svg">
<path d="M19.8102 18.9119L14.6465 13.8308C15.9987 12.3616 16.8296 10.4187 16.8296 8.28068C16.8289 3.7071 13.0618 0 8.41446 0C3.76712 0 0 3.7071 0 8.28068C0 12.8543 3.76712 16.5614 8.41446 16.5614C10.4224 16.5614 12.2641 15.8668 13.7107 14.7122L18.8944 19.8134C19.147 20.0622 19.557 20.0622 19.8096 19.8134C20.0628 19.5646 20.0628 19.1607 19.8102 18.9119ZM8.41446 15.2873C4.48231 15.2873 1.29468 12.1504 1.29468 8.28068C1.29468 4.41101 4.48231 1.27403 8.41446 1.27403C12.3466 1.27403 15.5342 4.41101 15.5342 8.28068C15.5342 12.1504 12.3466 15.2873 8.41446 15.2873Z" fill="black"/>
</svg>
