<svg width="19" height="19" viewBox="0 0 19 19" fill="none" xmlns="http://www.w3.org/2000/svg">
<path d="M13.2742 7.07468L13.2736 7.07463C12.948 7.04519 12.6362 6.92888 12.3708 6.73784C12.1055 6.54682 11.8963 6.28811 11.7651 5.98868C11.7651 5.98864 11.7651 5.9886 11.765 5.98855L9.77639 1.45279L7.78708 5.99008C7.78706 5.99012 7.78704 5.99017 7.78702 5.99021C7.65579 6.28964 7.44659 6.54835 7.18127 6.73936C6.91592 6.9304 6.60414 7.04671 6.2785 7.07615L6.27795 7.0762L1.45296 7.50882L5.07661 10.5488L5.07696 10.5491C5.59593 10.985 5.82838 11.6695 5.68886 12.3284L5.68858 12.3297L4.62609 17.3032L8.85329 14.8292C8.85349 14.8291 8.85368 14.829 8.85388 14.8289C9.13376 14.6648 9.45235 14.5782 9.77682 14.5782C10.1013 14.5782 10.4198 14.6648 10.6997 14.8289L13.2742 7.07468ZM13.2742 7.07468L18.0993 7.50731L14.4767 10.5506C13.9597 10.9849 13.7226 11.6692 13.8652 12.3318C13.8653 12.3321 13.8653 12.3324 13.8654 12.3326L14.9275 17.3047L10.7004 14.8292L13.2742 7.07468Z" stroke="#EADDFF" stroke-width="1.5"/>
</svg>
