<svg width="13" height="10" viewBox="0 0 13 10" fill="none" xmlns="http://www.w3.org/2000/svg">
<path d="M4.88848 0.214335L9.10769 7.06244C9.2017 7.21582 9.1927 7.41218 9.08169 7.55578C8.58067 8.2064 8.07264 8.78766 7.64562 9.17549C7.64562 9.17549 7.3036 9.50959 7.08659 9.65418C6.79058 9.88766 6.40356 10 6.02754 10C5.60552 10 5.2065 9.87691 4.88748 9.63171C4.83048 9.57602 4.57947 9.36403 4.37446 9.16377C3.09839 7.99539 0.990289 4.94549 0.351257 3.34141C0.248252 3.10793 0.0332408 2.48466 0.0212402 2.16131C0.0212402 1.84967 0.0892436 1.54879 0.238251 1.25962C0.443261 0.90403 0.761277 0.625612 1.1383 0.469307C1.40031 0.368686 2.18635 0.213358 2.20935 0.213358C2.77038 0.112736 3.55842 0.0375146 4.47846 0.00039219C4.64347 -0.00644615 4.80348 0.0765909 4.88848 0.214335Z" fill="white"/>
<path opacity="0.4" d="M7.16096 0.672337C6.97395 0.370474 7.21297 -0.00954275 7.57198 0.00511084C8.41403 0.0412563 9.15606 0.103778 9.70809 0.179977C9.72009 0.1917 10.6991 0.347028 11.0302 0.525802C11.6452 0.837435 12.0212 1.44898 12.0212 2.10644V2.16114C12.0102 2.58512 11.6342 3.4868 11.6112 3.4868C11.4222 3.94106 11.1022 4.53405 10.7171 5.17197C10.5431 5.45918 10.1161 5.46601 9.9391 5.1788L7.16096 0.672337Z" fill="white"/>
</svg>
