<svg width="21" height="20" viewBox="0 0 21 20" fill="none" xmlns="http://www.w3.org/2000/svg">
<path d="M0.0681723 12.668C0.101771 12.7949 0.16016 12.9138 0.23997 13.018C0.31978 13.1222 0.419431 13.2095 0.533172 13.275L2.44317 14.379V16.578C2.44317 16.8432 2.54853 17.0976 2.73607 17.2851C2.9236 17.4726 3.17796 17.578 3.44317 17.578H5.64217L6.74617 19.488C6.8347 19.6393 6.96111 19.765 7.11295 19.8527C7.26479 19.9404 7.43684 19.987 7.61217 19.988C7.78617 19.988 7.95917 19.942 8.11317 19.853L10.0212 18.75L11.9312 19.854C12.1608 19.9864 12.4336 20.0224 12.6896 19.9539C12.9457 19.8855 13.1642 19.7183 13.2972 19.489L14.4002 17.579H16.5992C16.8644 17.579 17.1187 17.4736 17.3063 17.2861C17.4938 17.0986 17.5992 16.8442 17.5992 16.579V14.38L19.5092 13.276C19.6229 13.2103 19.7226 13.1227 19.8026 13.0184C19.8825 12.9141 19.9411 12.7951 19.975 12.6681C20.0089 12.5412 20.0174 12.4088 20.0001 12.2785C19.9828 12.1483 19.94 12.0227 19.8742 11.909L18.7712 10L19.8752 8.092C20.0079 7.86245 20.0439 7.58959 19.9755 7.33343C19.9071 7.07727 19.7397 6.85878 19.5102 6.726L17.6002 5.622V3.422C17.6002 3.15679 17.4948 2.90243 17.3073 2.7149C17.1197 2.52736 16.8654 2.422 16.6002 2.422H14.4012L13.2982 0.513003C13.165 0.283919 12.9469 0.116508 12.6912 0.0470025C12.5643 0.0126184 12.4319 0.00375231 12.3016 0.0209181C12.1714 0.0380839 12.0458 0.0809402 11.9322 0.147003L10.0212 1.25L8.11217 0.146003C7.88261 0.013317 7.60976 -0.0227698 7.3536 0.0456767C7.09744 0.114123 6.87895 0.281499 6.74617 0.511003L5.64217 2.421H3.44317C3.17796 2.421 2.9236 2.52636 2.73607 2.7139C2.54853 2.90143 2.44317 3.15579 2.44317 3.421V5.62L0.533172 6.724C0.303735 6.85735 0.136496 7.0762 0.0680839 7.3326C-0.000328556 7.58901 0.0356618 7.86208 0.168172 8.092L1.27217 10L0.168172 11.908C0.0361598 12.1383 0.000230528 12.4114 0.0681723 12.668ZM10.0212 11C6.54117 11 6.02117 9.121 6.02117 8C6.02117 6.713 7.05017 5.417 9.02117 5.085V4.012H11.0212V5.121C12.7552 5.531 13.4212 6.974 13.4212 8H12.4212L11.4212 8.018C11.4072 7.638 11.2062 7 10.0212 7C8.72217 7 8.02117 7.515 8.02117 8C8.02117 8.374 8.02117 9 10.0212 9C13.5012 9 14.0212 10.879 14.0212 12C14.0212 13.287 12.9922 14.583 11.0212 14.915V16H9.02117V14.92C6.68217 14.553 6.02117 12.917 6.02117 12H8.02117C8.03217 12.143 8.18017 13 10.0212 13C11.4012 13 12.0212 12.415 12.0212 12C12.0212 11.675 12.0212 11 10.0212 11Z" fill="#00BDB0"/>
</svg>
