<svg width="25" height="24" viewBox="0 0 25 24" fill="none" xmlns="http://www.w3.org/2000/svg">
<path d="M10.8885 7.21433L15.1077 14.0624C15.2017 14.2158 15.1927 14.4122 15.0817 14.5558C14.5807 15.2064 14.0726 15.7877 13.6456 16.1755C13.6456 16.1755 13.3036 16.5096 13.0866 16.6542C12.7906 16.8877 12.4036 17 12.0275 17C11.6055 17 11.2065 16.8769 10.8875 16.6317C10.8305 16.576 10.5795 16.364 10.3745 16.1638C9.09839 14.9954 6.99029 11.9455 6.35126 10.3414C6.24825 10.1079 6.03324 9.48466 6.02124 9.16131C6.02124 8.84967 6.08924 8.54879 6.23825 8.25962C6.44326 7.90403 6.76128 7.62561 7.1383 7.46931C7.40031 7.36869 8.18635 7.21336 8.20935 7.21336C8.77038 7.11274 9.55842 7.03751 10.4785 7.00039C10.6435 6.99355 10.8035 7.07659 10.8885 7.21433" fill="white"/>
<path opacity="0.4" d="M13.161 7.67234C12.974 7.37047 13.213 6.99046 13.572 7.00511C14.414 7.04126 15.1561 7.10378 15.7081 7.17998C15.7201 7.1917 16.6991 7.34703 17.0302 7.5258C17.6452 7.83743 18.0212 8.44898 18.0212 9.10644V9.16114C18.0102 9.58512 17.6342 10.4868 17.6112 10.4868C17.4222 10.9411 17.1022 11.534 16.7171 12.172C16.5431 12.4592 16.1161 12.466 15.9391 12.1788L13.161 7.67234Z" fill="white"/>
</svg>
